<svg xmlns="http://www.w3.org/2000/svg" viewBox="0 0 128 128">
<defs>
  <linearGradient id="g" x1="0" y1="0" x2="1" y2="1">
    <stop offset="0" stop-color="#fff176"/><stop offset="1" stop-color="#f59e0b"/>
  </linearGradient>
</defs>
<path d="M64 20c26 0 44 18 44 44s-18 44-44 44S20 90 20 64 38 20 64 20z" fill="url(#g)"/>
<path d="M24 60c6-16 22-28 40-28" fill="none" stroke="#fff" stroke-width="10" stroke-linecap="round" opacity=".35"/>
<path d="M34 30c10 2 18-2 22-10-8 2-14 6-22 10z" fill="#fbbf24"/>
<path d="M94 98c-10-2-18 2-22 10 8-2 14-6 22-10z" fill="#fbbf24"/>
</svg>