<svg xmlns="http://www.w3.org/2000/svg" viewBox="0 0 128 128">
<defs>
  <linearGradient id="r" x1="0" y1="0" x2="1" y2="1">
    <stop offset="0" stop-color="#ff6b6b"/><stop offset="1" stop-color="#b91c1c"/>
  </linearGradient>
</defs>
<path d="M20 76c8-30 34-52 64-52 10 0 18 2 24 6-10 42-42 72-78 74-6 0-8-2-10-6z" fill="url(#r)"/>
<path d="M20 76c6 22 22 36 44 40" fill="none" stroke="#22c55e" stroke-width="12" stroke-linecap="round"/>
<path d="M30 74c6 18 18 28 34 32" fill="none" stroke="#16a34a" stroke-width="6" stroke-linecap="round" opacity=".8"/>
<g fill="#111827" opacity=".55">
  <ellipse cx="54" cy="66" rx="3" ry="5"/><ellipse cx="68" cy="58" rx="3" ry="5"/><ellipse cx="74" cy="74" rx="3" ry="5"/>
  <ellipse cx="42" cy="78" rx="3" ry="5"/><ellipse cx="60" cy="84" rx="3" ry="5"/>
</g>
</svg>